<svg width="11" height="14" viewBox="0 0 11 14" fill="none" xmlns="http://www.w3.org/2000/svg">
<g clip-path="url(#clip0_8550_49248)">
<path d="M10.5577 2.86707H10.5738L5.99854 0.125749C5.86184 0.0419162 5.70906 0 5.55629 0C5.40351 0 5.25073 0.0419162 5.11404 0.125749L4.97734 0.209581L4.58333 0.444311L3.22442 1.24072L2.68567 1.55928L0.450292 2.88383C0.176901 3.04311 0.00804093 3.34491 0.00804093 3.68024V5.64192L0 8.93653C0 9.27186 0.16886 9.56527 0.434211 9.72455L7.26096 13.8742C7.39766 13.9581 7.55044 14 7.70322 14C8.15351 14 8.59576 13.6479 8.59576 13.0862V10.8898L10.5417 9.8C10.8231 9.64072 11 9.33892 11 8.99521V3.65509C11 3.31976 10.8231 3.02635 10.5577 2.86707ZM9.66521 8.67665H9.65716L7.71126 9.77485C7.42982 9.93413 7.25292 10.2359 7.25292 10.5796V12.206L6.89912 11.988L1.375 8.63473V3.96527L5.56433 1.48383L6.1674 1.84431L9.66521 3.93174V8.67665Z" fill="#0083FC"/>
<path fill-rule="evenodd" clip-rule="evenodd" d="M7.49441 5.42441C7.32555 5.42441 7.17277 5.4831 7.03608 5.56693L5.12233 4.37651V4.34298C5.12233 3.81483 4.7042 3.37891 4.18958 3.37891C3.67496 3.37891 3.25684 3.80645 3.25684 4.34298C3.25684 4.8795 3.67496 5.30705 4.18958 5.30705C4.35844 5.30705 4.51122 5.24837 4.64792 5.16453L6.56166 6.35495V6.38849C6.56166 6.91663 6.97979 7.35256 7.49441 7.35256C8.00903 7.35256 8.42716 6.92501 8.42716 6.38849C8.42716 5.85196 8.00903 5.42441 7.49441 5.42441Z" fill="#0083FC"/>
<path fill-rule="evenodd" clip-rule="evenodd" d="M6.23175 7.11767C6.11114 6.89971 5.84579 6.81587 5.62868 6.94162L4.67181 7.49492C4.52708 7.4027 4.3743 7.33563 4.1974 7.33563C3.68278 7.33563 3.26465 7.76318 3.26465 8.29971C3.26465 8.83623 3.68278 9.26378 4.1974 9.26378C4.71202 9.26378 5.13015 8.83623 5.13015 8.29971V8.28294L6.07094 7.73803C6.28 7.61228 6.36041 7.33563 6.23979 7.10929L6.23175 7.11767Z" fill="#0083FC"/>
</g>
<defs>
<clipPath id="clip0_8550_49248">
<rect width="11" height="14" fill="white"/>
</clipPath>
</defs>
</svg>
