<svg width="14" height="14" viewBox="0 0 14 14" fill="none" xmlns="http://www.w3.org/2000/svg">
<g clip-path="url(#clip0_9824_65512)">
<path d="M6.99967 2.33398V0.583984L4.66634 2.91732L6.99967 5.25065V3.50065C8.93051 3.50065 10.4997 5.06982 10.4997 7.00065C10.4997 7.58982 10.3538 8.14982 10.0913 8.63398L10.943 9.48565C11.398 8.76815 11.6663 7.91648 11.6663 7.00065C11.6663 4.42232 9.57801 2.33398 6.99967 2.33398ZM6.99967 10.5007C5.06884 10.5007 3.49967 8.93149 3.49967 7.00065C3.49967 6.41148 3.64551 5.85148 3.90801 5.36732L3.05634 4.51565C2.60134 5.23315 2.33301 6.08482 2.33301 7.00065C2.33301 9.57899 4.42134 11.6673 6.99967 11.6673V13.4173L9.33301 11.084L6.99967 8.75065V10.5007Z" fill="#0083FC"/>
</g>
<defs>
<clipPath id="clip0_9824_65512">
<rect width="14" height="14" fill="white"/>
</clipPath>
</defs>
</svg>
